# xmcd
#
# Track frame offsets:
#	150
#	17135
#	35646
#	53174
#	63503
#	77917
#	95094
#	113359
#	130779
#	149631
#	165469
#	183019
#	197277
#	214740
#	233650
#	245636
#	263085
#	282101
#	297737
#
# Disc length: 4170 seconds
#
# Revision: 4
# Processed by: cddbd v1.5.1PL0 Copyright (c) Steve Scherf et al.
# Submitted via: audiograbber 1.83.01
#
DISCID=13104813
DTITLE=2002-08 Country Radio - 2002-08 Country Radio
DYEAR=2002
DGENRE=Country
TTITLE0=Dixie Chicks - Long Time Gone
TTITLE1=Alan Jackson - Work In Progress
TTITLE2=Shannon Lawson - Dream Your Way To Me
TTITLE3=Deryl Dodd - Honky Tonk Champagne
TTITLE4=Carolyn Dawn Johnson - One Day Closer To You
TTITLE5=Travis Tritt - Strong Enough To Be Your Man
TTITLE6=The Charlie Daniels Band - The Last Fallen Hero
TTITLE7=Kellie Coffey - At The End Of The Day
TTITLE8=Steve Azar - Waitin' On Joe
TTITLE9=Blackhawk - I Will
TTITLE10=John Michael Montgomery - 'Til Nothing Comes Between Us
TTITLE11=Tanya Tucker - A Memory Like I'm Gonna Be
TTITLE12=Michael Peterson - Modern Man
TTITLE13=Trisha Yearwood - I Don't Paint Myself Into Corners
TTITLE14=Dean Miller - Love Is A Game
TTITLE15=Radney Foster - Everyday Angel
TTITLE16=Heather Myles - Never Had A Broken Heart
TTITLE17=Rebel Hearts - Colorado
TTITLE18=Christy - Never Walk Alone (Walk On)
EXTD=
EXTT0=
EXTT1=
EXTT2=
EXTT3=
EXTT4=
EXTT5=
EXTT6=
EXTT7=
EXTT8=
EXTT9=
EXTT10=
EXTT11=
EXTT12=
EXTT13=
EXTT14=
EXTT15=
EXTT16=
EXTT17=
EXTT18=
PLAYORDER=
